<mxfile host="app.diagrams.net" modified="2022-02-05T07:21:08.333Z" agent="5.0 (Windows NT 10.0; Win64; x64) AppleWebKit/537.36 (KHTML, like Gecko) Chrome/97.0.4692.99 Safari/537.36" etag="tlXlY2ftqmrFJtM8Vyy-" version="16.5.2" type="github">
  <diagram id="61oT4K3qERqZj4lGJ516" name="Page-1">
    <mxGraphModel dx="1753" dy="674" grid="1" gridSize="10" guides="1" tooltips="1" connect="1" arrows="1" fold="1" page="1" pageScale="1" pageWidth="3300" pageHeight="4681" math="0" shadow="0">
      <root>
        <mxCell id="0" />
        <mxCell id="1" parent="0" />
        <mxCell id="VjZZS00Gkfw38Kd_Mepe-1" value="Users" style="rounded=0;whiteSpace=wrap;html=1;fillColor=#dae8fc;strokeColor=#6c8ebf;" vertex="1" parent="1">
          <mxGeometry x="400" y="460" width="120" height="60" as="geometry" />
        </mxCell>
        <mxCell id="VjZZS00Gkfw38Kd_Mepe-2" value="Transaction" style="rounded=0;whiteSpace=wrap;html=1;fillColor=#dae8fc;strokeColor=#6c8ebf;" vertex="1" parent="1">
          <mxGeometry x="720" y="720" width="120" height="60" as="geometry" />
        </mxCell>
        <mxCell id="VjZZS00Gkfw38Kd_Mepe-3" value="Loyalty" style="rounded=0;whiteSpace=wrap;html=1;fillColor=#dae8fc;strokeColor=#6c8ebf;" vertex="1" parent="1">
          <mxGeometry x="400" y="200" width="120" height="60" as="geometry" />
        </mxCell>
        <mxCell id="VjZZS00Gkfw38Kd_Mepe-4" value="Table" style="rounded=0;whiteSpace=wrap;html=1;fillColor=#dae8fc;strokeColor=#6c8ebf;" vertex="1" parent="1">
          <mxGeometry x="1040" y="460" width="120" height="60" as="geometry" />
        </mxCell>
        <mxCell id="VjZZS00Gkfw38Kd_Mepe-6" value="Menu" style="rounded=0;whiteSpace=wrap;html=1;fillColor=#dae8fc;strokeColor=#6c8ebf;" vertex="1" parent="1">
          <mxGeometry x="720" y="200" width="120" height="60" as="geometry" />
        </mxCell>
        <mxCell id="VjZZS00Gkfw38Kd_Mepe-8" value="Order" style="rounded=0;whiteSpace=wrap;html=1;fillColor=#dae8fc;strokeColor=#6c8ebf;" vertex="1" parent="1">
          <mxGeometry x="720" y="460" width="120" height="60" as="geometry" />
        </mxCell>
        <mxCell id="VjZZS00Gkfw38Kd_Mepe-10" value="User" style="shape=table;startSize=30;container=1;collapsible=1;childLayout=tableLayout;fixedRows=1;rowLines=0;fontStyle=1;align=center;resizeLast=1;fillColor=#ffe6cc;strokeColor=#d79b00;" vertex="1" parent="1">
          <mxGeometry x="160" y="1480" width="180" height="150" as="geometry" />
        </mxCell>
        <mxCell id="VjZZS00Gkfw38Kd_Mepe-11" value="" style="shape=tableRow;horizontal=0;startSize=0;swimlaneHead=0;swimlaneBody=0;fillColor=none;collapsible=0;dropTarget=0;points=[[0,0.5],[1,0.5]];portConstraint=eastwest;top=0;left=0;right=0;bottom=1;" vertex="1" parent="VjZZS00Gkfw38Kd_Mepe-10">
          <mxGeometry y="30" width="180" height="30" as="geometry" />
        </mxCell>
        <mxCell id="VjZZS00Gkfw38Kd_Mepe-12" value="PK" style="shape=partialRectangle;connectable=0;fillColor=none;top=0;left=0;bottom=0;right=0;fontStyle=1;overflow=hidden;" vertex="1" parent="VjZZS00Gkfw38Kd_Mepe-11">
          <mxGeometry width="30" height="30" as="geometry">
            <mxRectangle width="30" height="30" as="alternateBounds" />
          </mxGeometry>
        </mxCell>
        <mxCell id="VjZZS00Gkfw38Kd_Mepe-13" value="UserID" style="shape=partialRectangle;connectable=0;fillColor=none;top=0;left=0;bottom=0;right=0;align=left;spacingLeft=6;fontStyle=5;overflow=hidden;" vertex="1" parent="VjZZS00Gkfw38Kd_Mepe-11">
          <mxGeometry x="30" width="150" height="30" as="geometry">
            <mxRectangle width="150" height="30" as="alternateBounds" />
          </mxGeometry>
        </mxCell>
        <mxCell id="VjZZS00Gkfw38Kd_Mepe-14" value="" style="shape=tableRow;horizontal=0;startSize=0;swimlaneHead=0;swimlaneBody=0;fillColor=none;collapsible=0;dropTarget=0;points=[[0,0.5],[1,0.5]];portConstraint=eastwest;top=0;left=0;right=0;bottom=0;" vertex="1" parent="VjZZS00Gkfw38Kd_Mepe-10">
          <mxGeometry y="60" width="180" height="30" as="geometry" />
        </mxCell>
        <mxCell id="VjZZS00Gkfw38Kd_Mepe-15" value="" style="shape=partialRectangle;connectable=0;fillColor=none;top=0;left=0;bottom=0;right=0;editable=1;overflow=hidden;" vertex="1" parent="VjZZS00Gkfw38Kd_Mepe-14">
          <mxGeometry width="30" height="30" as="geometry">
            <mxRectangle width="30" height="30" as="alternateBounds" />
          </mxGeometry>
        </mxCell>
        <mxCell id="VjZZS00Gkfw38Kd_Mepe-16" value="Name" style="shape=partialRectangle;connectable=0;fillColor=none;top=0;left=0;bottom=0;right=0;align=left;spacingLeft=6;overflow=hidden;" vertex="1" parent="VjZZS00Gkfw38Kd_Mepe-14">
          <mxGeometry x="30" width="150" height="30" as="geometry">
            <mxRectangle width="150" height="30" as="alternateBounds" />
          </mxGeometry>
        </mxCell>
        <mxCell id="VjZZS00Gkfw38Kd_Mepe-17" value="" style="shape=tableRow;horizontal=0;startSize=0;swimlaneHead=0;swimlaneBody=0;fillColor=none;collapsible=0;dropTarget=0;points=[[0,0.5],[1,0.5]];portConstraint=eastwest;top=0;left=0;right=0;bottom=0;" vertex="1" parent="VjZZS00Gkfw38Kd_Mepe-10">
          <mxGeometry y="90" width="180" height="30" as="geometry" />
        </mxCell>
        <mxCell id="VjZZS00Gkfw38Kd_Mepe-18" value="" style="shape=partialRectangle;connectable=0;fillColor=none;top=0;left=0;bottom=0;right=0;editable=1;overflow=hidden;" vertex="1" parent="VjZZS00Gkfw38Kd_Mepe-17">
          <mxGeometry width="30" height="30" as="geometry">
            <mxRectangle width="30" height="30" as="alternateBounds" />
          </mxGeometry>
        </mxCell>
        <mxCell id="VjZZS00Gkfw38Kd_Mepe-19" value="Address" style="shape=partialRectangle;connectable=0;fillColor=none;top=0;left=0;bottom=0;right=0;align=left;spacingLeft=6;overflow=hidden;" vertex="1" parent="VjZZS00Gkfw38Kd_Mepe-17">
          <mxGeometry x="30" width="150" height="30" as="geometry">
            <mxRectangle width="150" height="30" as="alternateBounds" />
          </mxGeometry>
        </mxCell>
        <mxCell id="VjZZS00Gkfw38Kd_Mepe-20" value="" style="shape=tableRow;horizontal=0;startSize=0;swimlaneHead=0;swimlaneBody=0;fillColor=none;collapsible=0;dropTarget=0;points=[[0,0.5],[1,0.5]];portConstraint=eastwest;top=0;left=0;right=0;bottom=0;" vertex="1" parent="VjZZS00Gkfw38Kd_Mepe-10">
          <mxGeometry y="120" width="180" height="30" as="geometry" />
        </mxCell>
        <mxCell id="VjZZS00Gkfw38Kd_Mepe-21" value="" style="shape=partialRectangle;connectable=0;fillColor=none;top=0;left=0;bottom=0;right=0;editable=1;overflow=hidden;" vertex="1" parent="VjZZS00Gkfw38Kd_Mepe-20">
          <mxGeometry width="30" height="30" as="geometry">
            <mxRectangle width="30" height="30" as="alternateBounds" />
          </mxGeometry>
        </mxCell>
        <mxCell id="VjZZS00Gkfw38Kd_Mepe-22" value="MobileNo" style="shape=partialRectangle;connectable=0;fillColor=none;top=0;left=0;bottom=0;right=0;align=left;spacingLeft=6;overflow=hidden;" vertex="1" parent="VjZZS00Gkfw38Kd_Mepe-20">
          <mxGeometry x="30" width="150" height="30" as="geometry">
            <mxRectangle width="150" height="30" as="alternateBounds" />
          </mxGeometry>
        </mxCell>
        <mxCell id="VjZZS00Gkfw38Kd_Mepe-25" value="belongs" style="rhombus;whiteSpace=wrap;html=1;fillColor=#ffe6cc;strokeColor=#d79b00;" vertex="1" parent="1">
          <mxGeometry x="740" y="580" width="80" height="80" as="geometry" />
        </mxCell>
        <mxCell id="VjZZS00Gkfw38Kd_Mepe-26" value="place" style="rhombus;whiteSpace=wrap;html=1;fillColor=#ffe6cc;strokeColor=#d79b00;" vertex="1" parent="1">
          <mxGeometry x="580" y="450" width="80" height="80" as="geometry" />
        </mxCell>
        <mxCell id="VjZZS00Gkfw38Kd_Mepe-27" value="tied" style="rhombus;whiteSpace=wrap;html=1;fillColor=#ffe6cc;strokeColor=#d79b00;" vertex="1" parent="1">
          <mxGeometry x="900" y="450" width="80" height="80" as="geometry" />
        </mxCell>
        <mxCell id="VjZZS00Gkfw38Kd_Mepe-28" value="has" style="rhombus;whiteSpace=wrap;html=1;fillColor=#ffe6cc;strokeColor=#d79b00;" vertex="1" parent="1">
          <mxGeometry x="740" y="320" width="80" height="80" as="geometry" />
        </mxCell>
        <mxCell id="VjZZS00Gkfw38Kd_Mepe-42" value="Order" style="shape=table;startSize=30;container=1;collapsible=1;childLayout=tableLayout;fixedRows=1;rowLines=0;fontStyle=1;align=center;resizeLast=1;fillColor=#ffe6cc;strokeColor=#d79b00;" vertex="1" parent="1">
          <mxGeometry x="560" y="1480" width="180" height="180" as="geometry" />
        </mxCell>
        <mxCell id="VjZZS00Gkfw38Kd_Mepe-43" value="" style="shape=tableRow;horizontal=0;startSize=0;swimlaneHead=0;swimlaneBody=0;fillColor=none;collapsible=0;dropTarget=0;points=[[0,0.5],[1,0.5]];portConstraint=eastwest;top=0;left=0;right=0;bottom=1;" vertex="1" parent="VjZZS00Gkfw38Kd_Mepe-42">
          <mxGeometry y="30" width="180" height="30" as="geometry" />
        </mxCell>
        <mxCell id="VjZZS00Gkfw38Kd_Mepe-44" value="PK" style="shape=partialRectangle;connectable=0;fillColor=none;top=0;left=0;bottom=0;right=0;fontStyle=1;overflow=hidden;" vertex="1" parent="VjZZS00Gkfw38Kd_Mepe-43">
          <mxGeometry width="30" height="30" as="geometry">
            <mxRectangle width="30" height="30" as="alternateBounds" />
          </mxGeometry>
        </mxCell>
        <mxCell id="VjZZS00Gkfw38Kd_Mepe-45" value="OrderID" style="shape=partialRectangle;connectable=0;fillColor=none;top=0;left=0;bottom=0;right=0;align=left;spacingLeft=6;fontStyle=5;overflow=hidden;" vertex="1" parent="VjZZS00Gkfw38Kd_Mepe-43">
          <mxGeometry x="30" width="150" height="30" as="geometry">
            <mxRectangle width="150" height="30" as="alternateBounds" />
          </mxGeometry>
        </mxCell>
        <mxCell id="VjZZS00Gkfw38Kd_Mepe-46" value="" style="shape=tableRow;horizontal=0;startSize=0;swimlaneHead=0;swimlaneBody=0;fillColor=none;collapsible=0;dropTarget=0;points=[[0,0.5],[1,0.5]];portConstraint=eastwest;top=0;left=0;right=0;bottom=0;" vertex="1" parent="VjZZS00Gkfw38Kd_Mepe-42">
          <mxGeometry y="60" width="180" height="30" as="geometry" />
        </mxCell>
        <mxCell id="VjZZS00Gkfw38Kd_Mepe-47" value="FK" style="shape=partialRectangle;connectable=0;fillColor=none;top=0;left=0;bottom=0;right=0;editable=1;overflow=hidden;" vertex="1" parent="VjZZS00Gkfw38Kd_Mepe-46">
          <mxGeometry width="30" height="30" as="geometry">
            <mxRectangle width="30" height="30" as="alternateBounds" />
          </mxGeometry>
        </mxCell>
        <mxCell id="VjZZS00Gkfw38Kd_Mepe-48" value="ItemID" style="shape=partialRectangle;connectable=0;fillColor=none;top=0;left=0;bottom=0;right=0;align=left;spacingLeft=6;overflow=hidden;" vertex="1" parent="VjZZS00Gkfw38Kd_Mepe-46">
          <mxGeometry x="30" width="150" height="30" as="geometry">
            <mxRectangle width="150" height="30" as="alternateBounds" />
          </mxGeometry>
        </mxCell>
        <mxCell id="VjZZS00Gkfw38Kd_Mepe-49" value="" style="shape=tableRow;horizontal=0;startSize=0;swimlaneHead=0;swimlaneBody=0;fillColor=none;collapsible=0;dropTarget=0;points=[[0,0.5],[1,0.5]];portConstraint=eastwest;top=0;left=0;right=0;bottom=0;" vertex="1" parent="VjZZS00Gkfw38Kd_Mepe-42">
          <mxGeometry y="90" width="180" height="30" as="geometry" />
        </mxCell>
        <mxCell id="VjZZS00Gkfw38Kd_Mepe-50" value="FK" style="shape=partialRectangle;connectable=0;fillColor=none;top=0;left=0;bottom=0;right=0;editable=1;overflow=hidden;" vertex="1" parent="VjZZS00Gkfw38Kd_Mepe-49">
          <mxGeometry width="30" height="30" as="geometry">
            <mxRectangle width="30" height="30" as="alternateBounds" />
          </mxGeometry>
        </mxCell>
        <mxCell id="VjZZS00Gkfw38Kd_Mepe-51" value="TableID" style="shape=partialRectangle;connectable=0;fillColor=none;top=0;left=0;bottom=0;right=0;align=left;spacingLeft=6;overflow=hidden;" vertex="1" parent="VjZZS00Gkfw38Kd_Mepe-49">
          <mxGeometry x="30" width="150" height="30" as="geometry">
            <mxRectangle width="150" height="30" as="alternateBounds" />
          </mxGeometry>
        </mxCell>
        <mxCell id="VjZZS00Gkfw38Kd_Mepe-169" style="shape=tableRow;horizontal=0;startSize=0;swimlaneHead=0;swimlaneBody=0;fillColor=none;collapsible=0;dropTarget=0;points=[[0,0.5],[1,0.5]];portConstraint=eastwest;top=0;left=0;right=0;bottom=0;" vertex="1" parent="VjZZS00Gkfw38Kd_Mepe-42">
          <mxGeometry y="120" width="180" height="30" as="geometry" />
        </mxCell>
        <mxCell id="VjZZS00Gkfw38Kd_Mepe-170" value="FK" style="shape=partialRectangle;connectable=0;fillColor=none;top=0;left=0;bottom=0;right=0;editable=1;overflow=hidden;" vertex="1" parent="VjZZS00Gkfw38Kd_Mepe-169">
          <mxGeometry width="30" height="30" as="geometry">
            <mxRectangle width="30" height="30" as="alternateBounds" />
          </mxGeometry>
        </mxCell>
        <mxCell id="VjZZS00Gkfw38Kd_Mepe-171" value="UserID" style="shape=partialRectangle;connectable=0;fillColor=none;top=0;left=0;bottom=0;right=0;align=left;spacingLeft=6;overflow=hidden;" vertex="1" parent="VjZZS00Gkfw38Kd_Mepe-169">
          <mxGeometry x="30" width="150" height="30" as="geometry">
            <mxRectangle width="150" height="30" as="alternateBounds" />
          </mxGeometry>
        </mxCell>
        <mxCell id="VjZZS00Gkfw38Kd_Mepe-172" style="shape=tableRow;horizontal=0;startSize=0;swimlaneHead=0;swimlaneBody=0;fillColor=none;collapsible=0;dropTarget=0;points=[[0,0.5],[1,0.5]];portConstraint=eastwest;top=0;left=0;right=0;bottom=0;" vertex="1" parent="VjZZS00Gkfw38Kd_Mepe-42">
          <mxGeometry y="150" width="180" height="30" as="geometry" />
        </mxCell>
        <mxCell id="VjZZS00Gkfw38Kd_Mepe-173" value="FK" style="shape=partialRectangle;connectable=0;fillColor=none;top=0;left=0;bottom=0;right=0;editable=1;overflow=hidden;" vertex="1" parent="VjZZS00Gkfw38Kd_Mepe-172">
          <mxGeometry width="30" height="30" as="geometry">
            <mxRectangle width="30" height="30" as="alternateBounds" />
          </mxGeometry>
        </mxCell>
        <mxCell id="VjZZS00Gkfw38Kd_Mepe-174" value="TableID" style="shape=partialRectangle;connectable=0;fillColor=none;top=0;left=0;bottom=0;right=0;align=left;spacingLeft=6;overflow=hidden;" vertex="1" parent="VjZZS00Gkfw38Kd_Mepe-172">
          <mxGeometry x="30" width="150" height="30" as="geometry">
            <mxRectangle width="150" height="30" as="alternateBounds" />
          </mxGeometry>
        </mxCell>
        <mxCell id="VjZZS00Gkfw38Kd_Mepe-108" value="Transaction" style="shape=table;startSize=30;container=1;collapsible=1;childLayout=tableLayout;fixedRows=1;rowLines=0;fontStyle=1;align=center;resizeLast=1;fillColor=#ffe6cc;strokeColor=#d79b00;" vertex="1" parent="1">
          <mxGeometry x="560" y="1800" width="180" height="120" as="geometry" />
        </mxCell>
        <mxCell id="VjZZS00Gkfw38Kd_Mepe-109" value="" style="shape=tableRow;horizontal=0;startSize=0;swimlaneHead=0;swimlaneBody=0;fillColor=none;collapsible=0;dropTarget=0;points=[[0,0.5],[1,0.5]];portConstraint=eastwest;top=0;left=0;right=0;bottom=1;" vertex="1" parent="VjZZS00Gkfw38Kd_Mepe-108">
          <mxGeometry y="30" width="180" height="30" as="geometry" />
        </mxCell>
        <mxCell id="VjZZS00Gkfw38Kd_Mepe-110" value="PK" style="shape=partialRectangle;connectable=0;fillColor=none;top=0;left=0;bottom=0;right=0;fontStyle=1;overflow=hidden;" vertex="1" parent="VjZZS00Gkfw38Kd_Mepe-109">
          <mxGeometry width="30" height="30" as="geometry">
            <mxRectangle width="30" height="30" as="alternateBounds" />
          </mxGeometry>
        </mxCell>
        <mxCell id="VjZZS00Gkfw38Kd_Mepe-111" value="TransactionID" style="shape=partialRectangle;connectable=0;fillColor=none;top=0;left=0;bottom=0;right=0;align=left;spacingLeft=6;fontStyle=5;overflow=hidden;" vertex="1" parent="VjZZS00Gkfw38Kd_Mepe-109">
          <mxGeometry x="30" width="150" height="30" as="geometry">
            <mxRectangle width="150" height="30" as="alternateBounds" />
          </mxGeometry>
        </mxCell>
        <mxCell id="VjZZS00Gkfw38Kd_Mepe-112" value="" style="shape=tableRow;horizontal=0;startSize=0;swimlaneHead=0;swimlaneBody=0;fillColor=none;collapsible=0;dropTarget=0;points=[[0,0.5],[1,0.5]];portConstraint=eastwest;top=0;left=0;right=0;bottom=0;" vertex="1" parent="VjZZS00Gkfw38Kd_Mepe-108">
          <mxGeometry y="60" width="180" height="30" as="geometry" />
        </mxCell>
        <mxCell id="VjZZS00Gkfw38Kd_Mepe-113" value="" style="shape=partialRectangle;connectable=0;fillColor=none;top=0;left=0;bottom=0;right=0;editable=1;overflow=hidden;" vertex="1" parent="VjZZS00Gkfw38Kd_Mepe-112">
          <mxGeometry width="30" height="30" as="geometry">
            <mxRectangle width="30" height="30" as="alternateBounds" />
          </mxGeometry>
        </mxCell>
        <mxCell id="VjZZS00Gkfw38Kd_Mepe-114" value="Status" style="shape=partialRectangle;connectable=0;fillColor=none;top=0;left=0;bottom=0;right=0;align=left;spacingLeft=6;overflow=hidden;" vertex="1" parent="VjZZS00Gkfw38Kd_Mepe-112">
          <mxGeometry x="30" width="150" height="30" as="geometry">
            <mxRectangle width="150" height="30" as="alternateBounds" />
          </mxGeometry>
        </mxCell>
        <mxCell id="VjZZS00Gkfw38Kd_Mepe-115" value="" style="shape=tableRow;horizontal=0;startSize=0;swimlaneHead=0;swimlaneBody=0;fillColor=none;collapsible=0;dropTarget=0;points=[[0,0.5],[1,0.5]];portConstraint=eastwest;top=0;left=0;right=0;bottom=0;" vertex="1" parent="VjZZS00Gkfw38Kd_Mepe-108">
          <mxGeometry y="90" width="180" height="30" as="geometry" />
        </mxCell>
        <mxCell id="VjZZS00Gkfw38Kd_Mepe-116" value="" style="shape=partialRectangle;connectable=0;fillColor=none;top=0;left=0;bottom=0;right=0;editable=1;overflow=hidden;" vertex="1" parent="VjZZS00Gkfw38Kd_Mepe-115">
          <mxGeometry width="30" height="30" as="geometry">
            <mxRectangle width="30" height="30" as="alternateBounds" />
          </mxGeometry>
        </mxCell>
        <mxCell id="VjZZS00Gkfw38Kd_Mepe-117" value="PaymentRefNo" style="shape=partialRectangle;connectable=0;fillColor=none;top=0;left=0;bottom=0;right=0;align=left;spacingLeft=6;overflow=hidden;" vertex="1" parent="VjZZS00Gkfw38Kd_Mepe-115">
          <mxGeometry x="30" width="150" height="30" as="geometry">
            <mxRectangle width="150" height="30" as="alternateBounds" />
          </mxGeometry>
        </mxCell>
        <mxCell id="VjZZS00Gkfw38Kd_Mepe-121" value="LoyaltyProgram" style="shape=table;startSize=30;container=1;collapsible=1;childLayout=tableLayout;fixedRows=1;rowLines=0;fontStyle=1;align=center;resizeLast=1;fillColor=#ffe6cc;strokeColor=#d79b00;" vertex="1" parent="1">
          <mxGeometry x="170" y="1200" width="180" height="90" as="geometry" />
        </mxCell>
        <mxCell id="VjZZS00Gkfw38Kd_Mepe-122" value="" style="shape=tableRow;horizontal=0;startSize=0;swimlaneHead=0;swimlaneBody=0;fillColor=none;collapsible=0;dropTarget=0;points=[[0,0.5],[1,0.5]];portConstraint=eastwest;top=0;left=0;right=0;bottom=1;" vertex="1" parent="VjZZS00Gkfw38Kd_Mepe-121">
          <mxGeometry y="30" width="180" height="30" as="geometry" />
        </mxCell>
        <mxCell id="VjZZS00Gkfw38Kd_Mepe-123" value="PK" style="shape=partialRectangle;connectable=0;fillColor=none;top=0;left=0;bottom=0;right=0;fontStyle=1;overflow=hidden;" vertex="1" parent="VjZZS00Gkfw38Kd_Mepe-122">
          <mxGeometry width="30" height="30" as="geometry">
            <mxRectangle width="30" height="30" as="alternateBounds" />
          </mxGeometry>
        </mxCell>
        <mxCell id="VjZZS00Gkfw38Kd_Mepe-124" value="LoyaltyID" style="shape=partialRectangle;connectable=0;fillColor=none;top=0;left=0;bottom=0;right=0;align=left;spacingLeft=6;fontStyle=5;overflow=hidden;" vertex="1" parent="VjZZS00Gkfw38Kd_Mepe-122">
          <mxGeometry x="30" width="150" height="30" as="geometry">
            <mxRectangle width="150" height="30" as="alternateBounds" />
          </mxGeometry>
        </mxCell>
        <mxCell id="VjZZS00Gkfw38Kd_Mepe-134" value="Menu" style="shape=table;startSize=30;container=1;collapsible=1;childLayout=tableLayout;fixedRows=1;rowLines=0;fontStyle=1;align=center;resizeLast=1;fillColor=#ffe6cc;strokeColor=#d79b00;" vertex="1" parent="1">
          <mxGeometry x="560" y="1140" width="180" height="150" as="geometry" />
        </mxCell>
        <mxCell id="VjZZS00Gkfw38Kd_Mepe-135" value="" style="shape=tableRow;horizontal=0;startSize=0;swimlaneHead=0;swimlaneBody=0;fillColor=none;collapsible=0;dropTarget=0;points=[[0,0.5],[1,0.5]];portConstraint=eastwest;top=0;left=0;right=0;bottom=1;" vertex="1" parent="VjZZS00Gkfw38Kd_Mepe-134">
          <mxGeometry y="30" width="180" height="30" as="geometry" />
        </mxCell>
        <mxCell id="VjZZS00Gkfw38Kd_Mepe-136" value="PK" style="shape=partialRectangle;connectable=0;fillColor=none;top=0;left=0;bottom=0;right=0;fontStyle=1;overflow=hidden;" vertex="1" parent="VjZZS00Gkfw38Kd_Mepe-135">
          <mxGeometry width="30" height="30" as="geometry">
            <mxRectangle width="30" height="30" as="alternateBounds" />
          </mxGeometry>
        </mxCell>
        <mxCell id="VjZZS00Gkfw38Kd_Mepe-137" value="ItemID" style="shape=partialRectangle;connectable=0;fillColor=none;top=0;left=0;bottom=0;right=0;align=left;spacingLeft=6;fontStyle=5;overflow=hidden;" vertex="1" parent="VjZZS00Gkfw38Kd_Mepe-135">
          <mxGeometry x="30" width="150" height="30" as="geometry">
            <mxRectangle width="150" height="30" as="alternateBounds" />
          </mxGeometry>
        </mxCell>
        <mxCell id="VjZZS00Gkfw38Kd_Mepe-138" value="" style="shape=tableRow;horizontal=0;startSize=0;swimlaneHead=0;swimlaneBody=0;fillColor=none;collapsible=0;dropTarget=0;points=[[0,0.5],[1,0.5]];portConstraint=eastwest;top=0;left=0;right=0;bottom=0;" vertex="1" parent="VjZZS00Gkfw38Kd_Mepe-134">
          <mxGeometry y="60" width="180" height="30" as="geometry" />
        </mxCell>
        <mxCell id="VjZZS00Gkfw38Kd_Mepe-139" value="" style="shape=partialRectangle;connectable=0;fillColor=none;top=0;left=0;bottom=0;right=0;editable=1;overflow=hidden;" vertex="1" parent="VjZZS00Gkfw38Kd_Mepe-138">
          <mxGeometry width="30" height="30" as="geometry">
            <mxRectangle width="30" height="30" as="alternateBounds" />
          </mxGeometry>
        </mxCell>
        <mxCell id="VjZZS00Gkfw38Kd_Mepe-140" value="Description" style="shape=partialRectangle;connectable=0;fillColor=none;top=0;left=0;bottom=0;right=0;align=left;spacingLeft=6;overflow=hidden;" vertex="1" parent="VjZZS00Gkfw38Kd_Mepe-138">
          <mxGeometry x="30" width="150" height="30" as="geometry">
            <mxRectangle width="150" height="30" as="alternateBounds" />
          </mxGeometry>
        </mxCell>
        <mxCell id="VjZZS00Gkfw38Kd_Mepe-141" value="" style="shape=tableRow;horizontal=0;startSize=0;swimlaneHead=0;swimlaneBody=0;fillColor=none;collapsible=0;dropTarget=0;points=[[0,0.5],[1,0.5]];portConstraint=eastwest;top=0;left=0;right=0;bottom=0;" vertex="1" parent="VjZZS00Gkfw38Kd_Mepe-134">
          <mxGeometry y="90" width="180" height="30" as="geometry" />
        </mxCell>
        <mxCell id="VjZZS00Gkfw38Kd_Mepe-142" value="" style="shape=partialRectangle;connectable=0;fillColor=none;top=0;left=0;bottom=0;right=0;editable=1;overflow=hidden;" vertex="1" parent="VjZZS00Gkfw38Kd_Mepe-141">
          <mxGeometry width="30" height="30" as="geometry">
            <mxRectangle width="30" height="30" as="alternateBounds" />
          </mxGeometry>
        </mxCell>
        <mxCell id="VjZZS00Gkfw38Kd_Mepe-143" value="Price" style="shape=partialRectangle;connectable=0;fillColor=none;top=0;left=0;bottom=0;right=0;align=left;spacingLeft=6;overflow=hidden;" vertex="1" parent="VjZZS00Gkfw38Kd_Mepe-141">
          <mxGeometry x="30" width="150" height="30" as="geometry">
            <mxRectangle width="150" height="30" as="alternateBounds" />
          </mxGeometry>
        </mxCell>
        <mxCell id="VjZZS00Gkfw38Kd_Mepe-239" style="shape=tableRow;horizontal=0;startSize=0;swimlaneHead=0;swimlaneBody=0;fillColor=none;collapsible=0;dropTarget=0;points=[[0,0.5],[1,0.5]];portConstraint=eastwest;top=0;left=0;right=0;bottom=0;" vertex="1" parent="VjZZS00Gkfw38Kd_Mepe-134">
          <mxGeometry y="120" width="180" height="30" as="geometry" />
        </mxCell>
        <mxCell id="VjZZS00Gkfw38Kd_Mepe-240" style="shape=partialRectangle;connectable=0;fillColor=none;top=0;left=0;bottom=0;right=0;editable=1;overflow=hidden;" vertex="1" parent="VjZZS00Gkfw38Kd_Mepe-239">
          <mxGeometry width="30" height="30" as="geometry">
            <mxRectangle width="30" height="30" as="alternateBounds" />
          </mxGeometry>
        </mxCell>
        <mxCell id="VjZZS00Gkfw38Kd_Mepe-241" value="Name" style="shape=partialRectangle;connectable=0;fillColor=none;top=0;left=0;bottom=0;right=0;align=left;spacingLeft=6;overflow=hidden;" vertex="1" parent="VjZZS00Gkfw38Kd_Mepe-239">
          <mxGeometry x="30" width="150" height="30" as="geometry">
            <mxRectangle width="150" height="30" as="alternateBounds" />
          </mxGeometry>
        </mxCell>
        <mxCell id="VjZZS00Gkfw38Kd_Mepe-147" value="Table" style="shape=table;startSize=30;container=1;collapsible=1;childLayout=tableLayout;fixedRows=1;rowLines=0;fontStyle=1;align=center;resizeLast=1;fillColor=#ffe6cc;strokeColor=#d79b00;" vertex="1" parent="1">
          <mxGeometry x="960" y="1480" width="180" height="120" as="geometry" />
        </mxCell>
        <mxCell id="VjZZS00Gkfw38Kd_Mepe-148" value="" style="shape=tableRow;horizontal=0;startSize=0;swimlaneHead=0;swimlaneBody=0;fillColor=none;collapsible=0;dropTarget=0;points=[[0,0.5],[1,0.5]];portConstraint=eastwest;top=0;left=0;right=0;bottom=1;" vertex="1" parent="VjZZS00Gkfw38Kd_Mepe-147">
          <mxGeometry y="30" width="180" height="30" as="geometry" />
        </mxCell>
        <mxCell id="VjZZS00Gkfw38Kd_Mepe-149" value="PK" style="shape=partialRectangle;connectable=0;fillColor=none;top=0;left=0;bottom=0;right=0;fontStyle=1;overflow=hidden;" vertex="1" parent="VjZZS00Gkfw38Kd_Mepe-148">
          <mxGeometry width="30" height="30" as="geometry">
            <mxRectangle width="30" height="30" as="alternateBounds" />
          </mxGeometry>
        </mxCell>
        <mxCell id="VjZZS00Gkfw38Kd_Mepe-150" value="TableNo" style="shape=partialRectangle;connectable=0;fillColor=none;top=0;left=0;bottom=0;right=0;align=left;spacingLeft=6;fontStyle=5;overflow=hidden;" vertex="1" parent="VjZZS00Gkfw38Kd_Mepe-148">
          <mxGeometry x="30" width="150" height="30" as="geometry">
            <mxRectangle width="150" height="30" as="alternateBounds" />
          </mxGeometry>
        </mxCell>
        <mxCell id="VjZZS00Gkfw38Kd_Mepe-175" value="ER Diagram" style="text;strokeColor=none;fillColor=none;spacingLeft=4;spacingRight=4;overflow=hidden;rotatable=0;points=[[0,0.5],[1,0.5]];portConstraint=eastwest;fontSize=17;fontStyle=5" vertex="1" parent="1">
          <mxGeometry x="730" y="30" width="110" height="30" as="geometry" />
        </mxCell>
        <mxCell id="VjZZS00Gkfw38Kd_Mepe-176" value="Relation Model" style="text;strokeColor=none;fillColor=none;spacingLeft=4;spacingRight=4;overflow=hidden;rotatable=0;points=[[0,0.5],[1,0.5]];portConstraint=eastwest;fontSize=17;fontStyle=5" vertex="1" parent="1">
          <mxGeometry x="590" y="1060" width="140" height="30" as="geometry" />
        </mxCell>
        <mxCell id="VjZZS00Gkfw38Kd_Mepe-178" value="" style="endArrow=none;html=1;rounded=0;exitX=1;exitY=0.5;exitDx=0;exitDy=0;entryX=0;entryY=0.5;entryDx=0;entryDy=0;" edge="1" parent="1" source="VjZZS00Gkfw38Kd_Mepe-26" target="VjZZS00Gkfw38Kd_Mepe-8">
          <mxGeometry width="50" height="50" relative="1" as="geometry">
            <mxPoint x="750" y="920" as="sourcePoint" />
            <mxPoint x="800" y="870" as="targetPoint" />
          </mxGeometry>
        </mxCell>
        <mxCell id="VjZZS00Gkfw38Kd_Mepe-179" value="1" style="text;strokeColor=none;fillColor=none;spacingLeft=4;spacingRight=4;overflow=hidden;rotatable=0;points=[[0,0.5],[1,0.5]];portConstraint=eastwest;fontSize=12;" vertex="1" parent="1">
          <mxGeometry x="560" y="460" width="20" height="30" as="geometry" />
        </mxCell>
        <mxCell id="VjZZS00Gkfw38Kd_Mepe-180" value="" style="endArrow=none;html=1;rounded=0;exitX=1;exitY=0.5;exitDx=0;exitDy=0;entryX=0;entryY=0.5;entryDx=0;entryDy=0;" edge="1" parent="1" source="VjZZS00Gkfw38Kd_Mepe-1" target="VjZZS00Gkfw38Kd_Mepe-26">
          <mxGeometry width="50" height="50" relative="1" as="geometry">
            <mxPoint x="520" y="490" as="sourcePoint" />
            <mxPoint x="580" y="490" as="targetPoint" />
          </mxGeometry>
        </mxCell>
        <mxCell id="VjZZS00Gkfw38Kd_Mepe-182" value="N" style="text;strokeColor=none;fillColor=none;spacingLeft=4;spacingRight=4;overflow=hidden;rotatable=0;points=[[0,0.5],[1,0.5]];portConstraint=eastwest;fontSize=12;" vertex="1" parent="1">
          <mxGeometry x="660" y="460" width="20" height="30" as="geometry" />
        </mxCell>
        <mxCell id="VjZZS00Gkfw38Kd_Mepe-183" value="" style="endArrow=none;html=1;rounded=0;entryX=1;entryY=0.5;entryDx=0;entryDy=0;exitX=0;exitY=0.5;exitDx=0;exitDy=0;" edge="1" parent="1" source="VjZZS00Gkfw38Kd_Mepe-27" target="VjZZS00Gkfw38Kd_Mepe-8">
          <mxGeometry width="50" height="50" relative="1" as="geometry">
            <mxPoint x="750" y="920" as="sourcePoint" />
            <mxPoint x="800" y="870" as="targetPoint" />
          </mxGeometry>
        </mxCell>
        <mxCell id="VjZZS00Gkfw38Kd_Mepe-184" value="" style="endArrow=none;html=1;rounded=0;exitX=1;exitY=0.5;exitDx=0;exitDy=0;entryX=0;entryY=0.5;entryDx=0;entryDy=0;" edge="1" parent="1" source="VjZZS00Gkfw38Kd_Mepe-27" target="VjZZS00Gkfw38Kd_Mepe-4">
          <mxGeometry width="50" height="50" relative="1" as="geometry">
            <mxPoint x="750" y="920" as="sourcePoint" />
            <mxPoint x="800" y="870" as="targetPoint" />
          </mxGeometry>
        </mxCell>
        <mxCell id="VjZZS00Gkfw38Kd_Mepe-185" value="M" style="text;strokeColor=none;fillColor=none;spacingLeft=4;spacingRight=4;overflow=hidden;rotatable=0;points=[[0,0.5],[1,0.5]];portConstraint=eastwest;fontSize=12;" vertex="1" parent="1">
          <mxGeometry x="880" y="460" width="20" height="30" as="geometry" />
        </mxCell>
        <mxCell id="VjZZS00Gkfw38Kd_Mepe-186" value="1" style="text;strokeColor=none;fillColor=none;spacingLeft=4;spacingRight=4;overflow=hidden;rotatable=0;points=[[0,0.5],[1,0.5]];portConstraint=eastwest;fontSize=12;" vertex="1" parent="1">
          <mxGeometry x="980" y="460" width="20" height="30" as="geometry" />
        </mxCell>
        <mxCell id="VjZZS00Gkfw38Kd_Mepe-187" value="" style="endArrow=none;html=1;rounded=0;entryX=0.5;entryY=1;entryDx=0;entryDy=0;exitX=0.5;exitY=0;exitDx=0;exitDy=0;" edge="1" parent="1" source="VjZZS00Gkfw38Kd_Mepe-25" target="VjZZS00Gkfw38Kd_Mepe-8">
          <mxGeometry width="50" height="50" relative="1" as="geometry">
            <mxPoint x="750" y="920" as="sourcePoint" />
            <mxPoint x="800" y="870" as="targetPoint" />
          </mxGeometry>
        </mxCell>
        <mxCell id="VjZZS00Gkfw38Kd_Mepe-188" value="" style="endArrow=none;html=1;rounded=0;entryX=0.5;entryY=1;entryDx=0;entryDy=0;exitX=0.5;exitY=0;exitDx=0;exitDy=0;" edge="1" parent="1" source="VjZZS00Gkfw38Kd_Mepe-2" target="VjZZS00Gkfw38Kd_Mepe-25">
          <mxGeometry width="50" height="50" relative="1" as="geometry">
            <mxPoint x="750" y="920" as="sourcePoint" />
            <mxPoint x="800" y="870" as="targetPoint" />
          </mxGeometry>
        </mxCell>
        <mxCell id="VjZZS00Gkfw38Kd_Mepe-189" value="1" style="text;strokeColor=none;fillColor=none;spacingLeft=4;spacingRight=4;overflow=hidden;rotatable=0;points=[[0,0.5],[1,0.5]];portConstraint=eastwest;fontSize=12;" vertex="1" parent="1">
          <mxGeometry x="780" y="660" width="20" height="30" as="geometry" />
        </mxCell>
        <mxCell id="VjZZS00Gkfw38Kd_Mepe-190" value="M" style="text;strokeColor=none;fillColor=none;spacingLeft=4;spacingRight=4;overflow=hidden;rotatable=0;points=[[0,0.5],[1,0.5]];portConstraint=eastwest;fontSize=12;" vertex="1" parent="1">
          <mxGeometry x="780" y="550" width="20" height="30" as="geometry" />
        </mxCell>
        <mxCell id="VjZZS00Gkfw38Kd_Mepe-191" value="" style="endArrow=none;html=1;rounded=0;entryX=0.5;entryY=1;entryDx=0;entryDy=0;exitX=0.5;exitY=0;exitDx=0;exitDy=0;" edge="1" parent="1" source="VjZZS00Gkfw38Kd_Mepe-28" target="VjZZS00Gkfw38Kd_Mepe-6">
          <mxGeometry width="50" height="50" relative="1" as="geometry">
            <mxPoint x="760" y="450" as="sourcePoint" />
            <mxPoint x="810" y="400" as="targetPoint" />
          </mxGeometry>
        </mxCell>
        <mxCell id="VjZZS00Gkfw38Kd_Mepe-192" value="" style="endArrow=none;html=1;rounded=0;entryX=0.5;entryY=1;entryDx=0;entryDy=0;exitX=0.5;exitY=0;exitDx=0;exitDy=0;" edge="1" parent="1" source="VjZZS00Gkfw38Kd_Mepe-8" target="VjZZS00Gkfw38Kd_Mepe-28">
          <mxGeometry width="50" height="50" relative="1" as="geometry">
            <mxPoint x="760" y="450" as="sourcePoint" />
            <mxPoint x="810" y="400" as="targetPoint" />
          </mxGeometry>
        </mxCell>
        <mxCell id="VjZZS00Gkfw38Kd_Mepe-193" value="N" style="text;strokeColor=none;fillColor=none;spacingLeft=4;spacingRight=4;overflow=hidden;rotatable=0;points=[[0,0.5],[1,0.5]];portConstraint=eastwest;fontSize=12;" vertex="1" parent="1">
          <mxGeometry x="780" y="400" width="20" height="30" as="geometry" />
        </mxCell>
        <mxCell id="VjZZS00Gkfw38Kd_Mepe-194" value="M" style="text;strokeColor=none;fillColor=none;spacingLeft=4;spacingRight=4;overflow=hidden;rotatable=0;points=[[0,0.5],[1,0.5]];portConstraint=eastwest;fontSize=12;" vertex="1" parent="1">
          <mxGeometry x="780" y="290" width="20" height="30" as="geometry" />
        </mxCell>
        <mxCell id="VjZZS00Gkfw38Kd_Mepe-195" value="belongs" style="rhombus;whiteSpace=wrap;html=1;fillColor=#ffe6cc;strokeColor=#d79b00;" vertex="1" parent="1">
          <mxGeometry x="420" y="320" width="80" height="80" as="geometry" />
        </mxCell>
        <mxCell id="VjZZS00Gkfw38Kd_Mepe-196" value="" style="endArrow=none;html=1;rounded=0;entryX=0.5;entryY=1;entryDx=0;entryDy=0;exitX=0.5;exitY=0;exitDx=0;exitDy=0;" edge="1" parent="1" source="VjZZS00Gkfw38Kd_Mepe-195" target="VjZZS00Gkfw38Kd_Mepe-3">
          <mxGeometry width="50" height="50" relative="1" as="geometry">
            <mxPoint x="430" y="660" as="sourcePoint" />
            <mxPoint x="459.99999999999955" y="260" as="targetPoint" />
          </mxGeometry>
        </mxCell>
        <mxCell id="VjZZS00Gkfw38Kd_Mepe-197" value="" style="endArrow=none;html=1;rounded=0;entryX=0.5;entryY=1;entryDx=0;entryDy=0;exitX=0.5;exitY=0;exitDx=0;exitDy=0;" edge="1" parent="1" target="VjZZS00Gkfw38Kd_Mepe-195" source="VjZZS00Gkfw38Kd_Mepe-1">
          <mxGeometry width="50" height="50" relative="1" as="geometry">
            <mxPoint x="459.99999999999955" y="460" as="sourcePoint" />
            <mxPoint x="480" y="610" as="targetPoint" />
          </mxGeometry>
        </mxCell>
        <mxCell id="VjZZS00Gkfw38Kd_Mepe-198" value="1" style="text;strokeColor=none;fillColor=none;spacingLeft=4;spacingRight=4;overflow=hidden;rotatable=0;points=[[0,0.5],[1,0.5]];portConstraint=eastwest;fontSize=12;" vertex="1" parent="1">
          <mxGeometry x="460" y="400" width="20" height="30" as="geometry" />
        </mxCell>
        <mxCell id="VjZZS00Gkfw38Kd_Mepe-199" value="M" style="text;strokeColor=none;fillColor=none;spacingLeft=4;spacingRight=4;overflow=hidden;rotatable=0;points=[[0,0.5],[1,0.5]];portConstraint=eastwest;fontSize=12;" vertex="1" parent="1">
          <mxGeometry x="460" y="290" width="20" height="30" as="geometry" />
        </mxCell>
        <mxCell id="VjZZS00Gkfw38Kd_Mepe-202" value="TableID" style="ellipse;whiteSpace=wrap;html=1;labelBackgroundColor=none;labelBorderColor=none;fontSize=12;fontColor=none;fontStyle=4" vertex="1" parent="1">
          <mxGeometry x="1240" y="460" width="120" height="60" as="geometry" />
        </mxCell>
        <mxCell id="VjZZS00Gkfw38Kd_Mepe-203" value="" style="endArrow=none;html=1;rounded=0;fontSize=12;fontColor=none;entryX=0;entryY=0.5;entryDx=0;entryDy=0;exitX=1;exitY=0.5;exitDx=0;exitDy=0;" edge="1" parent="1" source="VjZZS00Gkfw38Kd_Mepe-4" target="VjZZS00Gkfw38Kd_Mepe-202">
          <mxGeometry width="50" height="50" relative="1" as="geometry">
            <mxPoint x="790" y="420" as="sourcePoint" />
            <mxPoint x="840" y="370" as="targetPoint" />
          </mxGeometry>
        </mxCell>
        <mxCell id="VjZZS00Gkfw38Kd_Mepe-205" value="MenuID" style="ellipse;whiteSpace=wrap;html=1;labelBackgroundColor=none;labelBorderColor=none;fontSize=12;fontColor=none;fontStyle=4" vertex="1" parent="1">
          <mxGeometry x="890" y="200" width="120" height="60" as="geometry" />
        </mxCell>
        <mxCell id="VjZZS00Gkfw38Kd_Mepe-206" value="LoyaltyID" style="ellipse;whiteSpace=wrap;html=1;labelBackgroundColor=none;labelBorderColor=none;fontSize=12;fontColor=none;fontStyle=4" vertex="1" parent="1">
          <mxGeometry x="210" y="200" width="120" height="60" as="geometry" />
        </mxCell>
        <mxCell id="VjZZS00Gkfw38Kd_Mepe-207" value="UserID" style="ellipse;whiteSpace=wrap;html=1;labelBackgroundColor=none;labelBorderColor=none;fontSize=12;fontColor=none;fontStyle=4" vertex="1" parent="1">
          <mxGeometry x="270" y="390" width="120" height="60" as="geometry" />
        </mxCell>
        <mxCell id="VjZZS00Gkfw38Kd_Mepe-211" value="OrderID" style="ellipse;whiteSpace=wrap;html=1;labelBackgroundColor=none;labelBorderColor=none;fontSize=12;fontColor=none;fontStyle=4" vertex="1" parent="1">
          <mxGeometry x="580" y="340" width="120" height="60" as="geometry" />
        </mxCell>
        <mxCell id="VjZZS00Gkfw38Kd_Mepe-212" value="TranscationID" style="ellipse;whiteSpace=wrap;html=1;labelBackgroundColor=none;labelBorderColor=none;fontSize=12;fontColor=none;fontStyle=4" vertex="1" parent="1">
          <mxGeometry x="720" y="830" width="120" height="60" as="geometry" />
        </mxCell>
        <mxCell id="VjZZS00Gkfw38Kd_Mepe-213" value="Name" style="ellipse;whiteSpace=wrap;html=1;labelBackgroundColor=none;labelBorderColor=none;fontSize=12;fontColor=none;fontStyle=0" vertex="1" parent="1">
          <mxGeometry x="210" y="460" width="120" height="60" as="geometry" />
        </mxCell>
        <mxCell id="VjZZS00Gkfw38Kd_Mepe-214" value="MobileNo" style="ellipse;whiteSpace=wrap;html=1;labelBackgroundColor=none;labelBorderColor=none;fontSize=12;fontColor=none;fontStyle=0" vertex="1" parent="1">
          <mxGeometry x="260" y="530" width="120" height="60" as="geometry" />
        </mxCell>
        <mxCell id="VjZZS00Gkfw38Kd_Mepe-215" value="Address" style="ellipse;whiteSpace=wrap;html=1;labelBackgroundColor=none;labelBorderColor=none;fontSize=12;fontColor=none;fontStyle=0" vertex="1" parent="1">
          <mxGeometry x="400" y="550" width="120" height="60" as="geometry" />
        </mxCell>
        <mxCell id="VjZZS00Gkfw38Kd_Mepe-216" value="Price" style="ellipse;whiteSpace=wrap;html=1;labelBackgroundColor=none;labelBorderColor=none;fontSize=12;fontColor=none;fontStyle=0" vertex="1" parent="1">
          <mxGeometry x="850" y="130" width="120" height="60" as="geometry" />
        </mxCell>
        <mxCell id="VjZZS00Gkfw38Kd_Mepe-217" value="Description" style="ellipse;whiteSpace=wrap;html=1;labelBackgroundColor=none;labelBorderColor=none;fontSize=12;fontColor=none;fontStyle=0" vertex="1" parent="1">
          <mxGeometry x="720" y="110" width="120" height="60" as="geometry" />
        </mxCell>
        <mxCell id="VjZZS00Gkfw38Kd_Mepe-218" value="Name" style="ellipse;whiteSpace=wrap;html=1;labelBackgroundColor=none;labelBorderColor=none;fontSize=12;fontColor=none;fontStyle=0" vertex="1" parent="1">
          <mxGeometry x="590" y="130" width="120" height="60" as="geometry" />
        </mxCell>
        <mxCell id="VjZZS00Gkfw38Kd_Mepe-221" value="" style="endArrow=none;html=1;rounded=0;fontSize=12;fontColor=none;entryX=0.794;entryY=0.942;entryDx=0;entryDy=0;entryPerimeter=0;exitX=0;exitY=0;exitDx=0;exitDy=0;" edge="1" parent="1" source="VjZZS00Gkfw38Kd_Mepe-8" target="VjZZS00Gkfw38Kd_Mepe-211">
          <mxGeometry width="50" height="50" relative="1" as="geometry">
            <mxPoint x="730" y="460" as="sourcePoint" />
            <mxPoint x="840" y="480" as="targetPoint" />
          </mxGeometry>
        </mxCell>
        <mxCell id="VjZZS00Gkfw38Kd_Mepe-223" value="" style="endArrow=none;html=1;rounded=0;fontSize=12;fontColor=none;entryX=0;entryY=0.5;entryDx=0;entryDy=0;exitX=1;exitY=0.5;exitDx=0;exitDy=0;" edge="1" parent="1" source="VjZZS00Gkfw38Kd_Mepe-206" target="VjZZS00Gkfw38Kd_Mepe-3">
          <mxGeometry width="50" height="50" relative="1" as="geometry">
            <mxPoint x="790" y="530" as="sourcePoint" />
            <mxPoint x="840" y="480" as="targetPoint" />
          </mxGeometry>
        </mxCell>
        <mxCell id="VjZZS00Gkfw38Kd_Mepe-224" value="" style="endArrow=none;html=1;rounded=0;fontSize=12;fontColor=none;entryX=1;entryY=1;entryDx=0;entryDy=0;exitX=0;exitY=0;exitDx=0;exitDy=0;" edge="1" parent="1" source="VjZZS00Gkfw38Kd_Mepe-1" target="VjZZS00Gkfw38Kd_Mepe-207">
          <mxGeometry width="50" height="50" relative="1" as="geometry">
            <mxPoint x="790" y="530" as="sourcePoint" />
            <mxPoint x="840" y="480" as="targetPoint" />
          </mxGeometry>
        </mxCell>
        <mxCell id="VjZZS00Gkfw38Kd_Mepe-225" value="" style="endArrow=none;html=1;rounded=0;fontSize=12;fontColor=none;entryX=1;entryY=0.5;entryDx=0;entryDy=0;exitX=0;exitY=0.5;exitDx=0;exitDy=0;" edge="1" parent="1" source="VjZZS00Gkfw38Kd_Mepe-1" target="VjZZS00Gkfw38Kd_Mepe-213">
          <mxGeometry width="50" height="50" relative="1" as="geometry">
            <mxPoint x="790" y="530" as="sourcePoint" />
            <mxPoint x="840" y="480" as="targetPoint" />
          </mxGeometry>
        </mxCell>
        <mxCell id="VjZZS00Gkfw38Kd_Mepe-226" value="" style="endArrow=none;html=1;rounded=0;fontSize=12;fontColor=none;entryX=1;entryY=0;entryDx=0;entryDy=0;exitX=0;exitY=1;exitDx=0;exitDy=0;" edge="1" parent="1" source="VjZZS00Gkfw38Kd_Mepe-1" target="VjZZS00Gkfw38Kd_Mepe-214">
          <mxGeometry width="50" height="50" relative="1" as="geometry">
            <mxPoint x="790" y="530" as="sourcePoint" />
            <mxPoint x="840" y="480" as="targetPoint" />
          </mxGeometry>
        </mxCell>
        <mxCell id="VjZZS00Gkfw38Kd_Mepe-227" value="" style="endArrow=none;html=1;rounded=0;fontSize=12;fontColor=none;entryX=0.5;entryY=1;entryDx=0;entryDy=0;exitX=0.5;exitY=0;exitDx=0;exitDy=0;" edge="1" parent="1" source="VjZZS00Gkfw38Kd_Mepe-215" target="VjZZS00Gkfw38Kd_Mepe-1">
          <mxGeometry width="50" height="50" relative="1" as="geometry">
            <mxPoint x="790" y="530" as="sourcePoint" />
            <mxPoint x="840" y="480" as="targetPoint" />
          </mxGeometry>
        </mxCell>
        <mxCell id="VjZZS00Gkfw38Kd_Mepe-228" value="" style="endArrow=none;html=1;rounded=0;fontSize=12;fontColor=none;entryX=0.5;entryY=1;entryDx=0;entryDy=0;exitX=0.5;exitY=0;exitDx=0;exitDy=0;" edge="1" parent="1" source="VjZZS00Gkfw38Kd_Mepe-212" target="VjZZS00Gkfw38Kd_Mepe-2">
          <mxGeometry width="50" height="50" relative="1" as="geometry">
            <mxPoint x="790" y="530" as="sourcePoint" />
            <mxPoint x="840" y="480" as="targetPoint" />
          </mxGeometry>
        </mxCell>
        <mxCell id="VjZZS00Gkfw38Kd_Mepe-229" value="" style="endArrow=none;html=1;rounded=0;fontSize=12;fontColor=none;entryX=0.7;entryY=0.952;entryDx=0;entryDy=0;entryPerimeter=0;exitX=0;exitY=0.25;exitDx=0;exitDy=0;" edge="1" parent="1" source="VjZZS00Gkfw38Kd_Mepe-6" target="VjZZS00Gkfw38Kd_Mepe-218">
          <mxGeometry width="50" height="50" relative="1" as="geometry">
            <mxPoint x="790" y="530" as="sourcePoint" />
            <mxPoint x="840" y="480" as="targetPoint" />
          </mxGeometry>
        </mxCell>
        <mxCell id="VjZZS00Gkfw38Kd_Mepe-230" value="" style="endArrow=none;html=1;rounded=0;fontSize=12;fontColor=none;entryX=0.5;entryY=1;entryDx=0;entryDy=0;exitX=0.5;exitY=0;exitDx=0;exitDy=0;" edge="1" parent="1" source="VjZZS00Gkfw38Kd_Mepe-6" target="VjZZS00Gkfw38Kd_Mepe-217">
          <mxGeometry width="50" height="50" relative="1" as="geometry">
            <mxPoint x="810" y="190" as="sourcePoint" />
            <mxPoint x="840" y="480" as="targetPoint" />
          </mxGeometry>
        </mxCell>
        <mxCell id="VjZZS00Gkfw38Kd_Mepe-231" value="" style="endArrow=none;html=1;rounded=0;fontSize=12;fontColor=none;entryX=0.083;entryY=0.854;entryDx=0;entryDy=0;entryPerimeter=0;exitX=1;exitY=0;exitDx=0;exitDy=0;" edge="1" parent="1" source="VjZZS00Gkfw38Kd_Mepe-6" target="VjZZS00Gkfw38Kd_Mepe-216">
          <mxGeometry width="50" height="50" relative="1" as="geometry">
            <mxPoint x="790" y="530" as="sourcePoint" />
            <mxPoint x="840" y="480" as="targetPoint" />
          </mxGeometry>
        </mxCell>
        <mxCell id="VjZZS00Gkfw38Kd_Mepe-232" value="" style="endArrow=none;html=1;rounded=0;fontSize=12;fontColor=none;entryX=0;entryY=0.5;entryDx=0;entryDy=0;exitX=1;exitY=0.5;exitDx=0;exitDy=0;" edge="1" parent="1" source="VjZZS00Gkfw38Kd_Mepe-6" target="VjZZS00Gkfw38Kd_Mepe-205">
          <mxGeometry width="50" height="50" relative="1" as="geometry">
            <mxPoint x="790" y="530" as="sourcePoint" />
            <mxPoint x="840" y="480" as="targetPoint" />
          </mxGeometry>
        </mxCell>
        <mxCell id="VjZZS00Gkfw38Kd_Mepe-233" value="" style="endArrow=none;html=1;rounded=0;fontSize=17;fontColor=none;exitX=1.019;exitY=0.982;exitDx=0;exitDy=0;entryX=0;entryY=1.022;entryDx=0;entryDy=0;entryPerimeter=0;exitPerimeter=0;" edge="1" parent="1" source="VjZZS00Gkfw38Kd_Mepe-14" target="VjZZS00Gkfw38Kd_Mepe-46">
          <mxGeometry width="50" height="50" relative="1" as="geometry">
            <mxPoint x="790" y="1710" as="sourcePoint" />
            <mxPoint x="840" y="1660" as="targetPoint" />
          </mxGeometry>
        </mxCell>
        <mxCell id="VjZZS00Gkfw38Kd_Mepe-234" value="" style="endArrow=none;html=1;rounded=0;fontSize=17;fontColor=none;exitX=1;exitY=0.5;exitDx=0;exitDy=0;entryX=0;entryY=0.5;entryDx=0;entryDy=0;" edge="1" parent="1" source="VjZZS00Gkfw38Kd_Mepe-46" target="VjZZS00Gkfw38Kd_Mepe-151">
          <mxGeometry width="50" height="50" relative="1" as="geometry">
            <mxPoint x="790" y="1710" as="sourcePoint" />
            <mxPoint x="840" y="1660" as="targetPoint" />
          </mxGeometry>
        </mxCell>
        <mxCell id="VjZZS00Gkfw38Kd_Mepe-236" value="" style="endArrow=none;html=1;rounded=0;fontSize=17;fontColor=none;exitX=0.993;exitY=1.022;exitDx=0;exitDy=0;entryX=0;entryY=0.75;entryDx=0;entryDy=0;exitPerimeter=0;" edge="1" parent="1" source="VjZZS00Gkfw38Kd_Mepe-46" target="VjZZS00Gkfw38Kd_Mepe-147">
          <mxGeometry width="50" height="50" relative="1" as="geometry">
            <mxPoint x="790" y="1590" as="sourcePoint" />
            <mxPoint x="940" y="1555" as="targetPoint" />
          </mxGeometry>
        </mxCell>
        <mxCell id="VjZZS00Gkfw38Kd_Mepe-237" value="" style="endArrow=none;html=1;rounded=0;fontSize=17;fontColor=none;exitX=0.5;exitY=0;exitDx=0;exitDy=0;entryX=0.509;entryY=1.022;entryDx=0;entryDy=0;entryPerimeter=0;" edge="1" parent="1" source="VjZZS00Gkfw38Kd_Mepe-42" target="VjZZS00Gkfw38Kd_Mepe-239">
          <mxGeometry width="50" height="50" relative="1" as="geometry">
            <mxPoint x="790" y="1590" as="sourcePoint" />
            <mxPoint x="750" y="1360" as="targetPoint" />
          </mxGeometry>
        </mxCell>
        <mxCell id="VjZZS00Gkfw38Kd_Mepe-238" value="" style="endArrow=none;html=1;rounded=0;fontSize=17;fontColor=none;entryX=0.503;entryY=1.12;entryDx=0;entryDy=0;entryPerimeter=0;exitX=0.5;exitY=0;exitDx=0;exitDy=0;" edge="1" parent="1" source="VjZZS00Gkfw38Kd_Mepe-108" target="VjZZS00Gkfw38Kd_Mepe-172">
          <mxGeometry width="50" height="50" relative="1" as="geometry">
            <mxPoint x="790" y="1590" as="sourcePoint" />
            <mxPoint x="840" y="1540" as="targetPoint" />
          </mxGeometry>
        </mxCell>
        <mxCell id="VjZZS00Gkfw38Kd_Mepe-243" value="&lt;span style=&quot;text-align: left&quot;&gt;PaymentRefNo&lt;/span&gt;" style="ellipse;whiteSpace=wrap;html=1;labelBackgroundColor=none;labelBorderColor=none;fontSize=12;fontColor=none;fontStyle=0" vertex="1" parent="1">
          <mxGeometry x="580" y="790" width="120" height="60" as="geometry" />
        </mxCell>
        <mxCell id="VjZZS00Gkfw38Kd_Mepe-244" value="Status" style="ellipse;whiteSpace=wrap;html=1;labelBackgroundColor=none;labelBorderColor=none;fontSize=12;fontColor=none;fontStyle=0" vertex="1" parent="1">
          <mxGeometry x="870" y="790" width="120" height="60" as="geometry" />
        </mxCell>
        <mxCell id="VjZZS00Gkfw38Kd_Mepe-245" value="" style="endArrow=none;html=1;rounded=0;fontSize=17;fontColor=none;exitX=1;exitY=0;exitDx=0;exitDy=0;entryX=0;entryY=1;entryDx=0;entryDy=0;" edge="1" parent="1" source="VjZZS00Gkfw38Kd_Mepe-243" target="VjZZS00Gkfw38Kd_Mepe-2">
          <mxGeometry width="50" height="50" relative="1" as="geometry">
            <mxPoint x="790" y="650" as="sourcePoint" />
            <mxPoint x="840" y="600" as="targetPoint" />
          </mxGeometry>
        </mxCell>
        <mxCell id="VjZZS00Gkfw38Kd_Mepe-246" value="" style="endArrow=none;html=1;rounded=0;fontSize=17;fontColor=none;entryX=1;entryY=1;entryDx=0;entryDy=0;exitX=0.044;exitY=0.226;exitDx=0;exitDy=0;exitPerimeter=0;" edge="1" parent="1" source="VjZZS00Gkfw38Kd_Mepe-244" target="VjZZS00Gkfw38Kd_Mepe-2">
          <mxGeometry width="50" height="50" relative="1" as="geometry">
            <mxPoint x="790" y="650" as="sourcePoint" />
            <mxPoint x="840" y="600" as="targetPoint" />
          </mxGeometry>
        </mxCell>
        <mxCell id="VjZZS00Gkfw38Kd_Mepe-247" value="" style="endArrow=none;html=1;rounded=0;fontSize=17;fontColor=none;entryX=0.5;entryY=1;entryDx=0;entryDy=0;exitX=0.549;exitY=-0.015;exitDx=0;exitDy=0;exitPerimeter=0;" edge="1" parent="1" source="VjZZS00Gkfw38Kd_Mepe-10" target="VjZZS00Gkfw38Kd_Mepe-121">
          <mxGeometry width="50" height="50" relative="1" as="geometry">
            <mxPoint x="750" y="1440" as="sourcePoint" />
            <mxPoint x="800" y="1390" as="targetPoint" />
          </mxGeometry>
        </mxCell>
        <mxCell id="VjZZS00Gkfw38Kd_Mepe-248" value="tied" style="text;strokeColor=none;fillColor=none;spacingLeft=4;spacingRight=4;overflow=hidden;rotatable=0;points=[[0,0.5],[1,0.5]];portConstraint=eastwest;fontSize=12;labelBackgroundColor=none;labelBorderColor=none;fontColor=none;" vertex="1" parent="1">
          <mxGeometry x="260" y="1360" width="40" height="30" as="geometry" />
        </mxCell>
        <mxCell id="VjZZS00Gkfw38Kd_Mepe-249" value="1" style="text;strokeColor=none;fillColor=none;spacingLeft=4;spacingRight=4;overflow=hidden;rotatable=0;points=[[0,0.5],[1,0.5]];portConstraint=eastwest;fontSize=12;labelBackgroundColor=none;labelBorderColor=none;fontColor=none;" vertex="1" parent="1">
          <mxGeometry x="260" y="1290" width="20" height="30" as="geometry" />
        </mxCell>
        <mxCell id="VjZZS00Gkfw38Kd_Mepe-250" value="1..n" style="text;strokeColor=none;fillColor=none;spacingLeft=4;spacingRight=4;overflow=hidden;rotatable=0;points=[[0,0.5],[1,0.5]];portConstraint=eastwest;fontSize=12;labelBackgroundColor=none;labelBorderColor=none;fontColor=none;" vertex="1" parent="1">
          <mxGeometry x="260" y="1450" width="40" height="30" as="geometry" />
        </mxCell>
        <mxCell id="VjZZS00Gkfw38Kd_Mepe-251" value="1..n" style="text;strokeColor=none;fillColor=none;spacingLeft=4;spacingRight=4;overflow=hidden;rotatable=0;points=[[0,0.5],[1,0.5]];portConstraint=eastwest;fontSize=12;labelBackgroundColor=none;labelBorderColor=none;fontColor=none;" vertex="1" parent="1">
          <mxGeometry x="650" y="1290" width="40" height="30" as="geometry" />
        </mxCell>
        <mxCell id="VjZZS00Gkfw38Kd_Mepe-252" value="has" style="text;strokeColor=none;fillColor=none;spacingLeft=4;spacingRight=4;overflow=hidden;rotatable=0;points=[[0,0.5],[1,0.5]];portConstraint=eastwest;fontSize=12;labelBackgroundColor=none;labelBorderColor=none;fontColor=none;" vertex="1" parent="1">
          <mxGeometry x="650" y="1360" width="40" height="30" as="geometry" />
        </mxCell>
        <mxCell id="VjZZS00Gkfw38Kd_Mepe-253" value="0..n" style="text;strokeColor=none;fillColor=none;spacingLeft=4;spacingRight=4;overflow=hidden;rotatable=0;points=[[0,0.5],[1,0.5]];portConstraint=eastwest;fontSize=12;labelBackgroundColor=none;labelBorderColor=none;fontColor=none;" vertex="1" parent="1">
          <mxGeometry x="650" y="1450" width="40" height="30" as="geometry" />
        </mxCell>
        <mxCell id="VjZZS00Gkfw38Kd_Mepe-254" value="place" style="text;strokeColor=none;fillColor=none;spacingLeft=4;spacingRight=4;overflow=hidden;rotatable=0;points=[[0,0.5],[1,0.5]];portConstraint=eastwest;fontSize=12;labelBackgroundColor=none;labelBorderColor=none;fontColor=none;" vertex="1" parent="1">
          <mxGeometry x="430" y="1540" width="40" height="30" as="geometry" />
        </mxCell>
        <mxCell id="VjZZS00Gkfw38Kd_Mepe-255" value="1" style="text;strokeColor=none;fillColor=none;spacingLeft=4;spacingRight=4;overflow=hidden;rotatable=0;points=[[0,0.5],[1,0.5]];portConstraint=eastwest;fontSize=12;labelBackgroundColor=none;labelBorderColor=none;fontColor=none;" vertex="1" parent="1">
          <mxGeometry x="340" y="1540" width="20" height="30" as="geometry" />
        </mxCell>
        <mxCell id="VjZZS00Gkfw38Kd_Mepe-256" value="1..n" style="text;strokeColor=none;fillColor=none;spacingLeft=4;spacingRight=4;overflow=hidden;rotatable=0;points=[[0,0.5],[1,0.5]];portConstraint=eastwest;fontSize=12;labelBackgroundColor=none;labelBorderColor=none;fontColor=none;" vertex="1" parent="1">
          <mxGeometry x="520" y="1540" width="40" height="30" as="geometry" />
        </mxCell>
        <mxCell id="VjZZS00Gkfw38Kd_Mepe-257" value="tied" style="text;strokeColor=none;fillColor=none;spacingLeft=4;spacingRight=4;overflow=hidden;rotatable=0;points=[[0,0.5],[1,0.5]];portConstraint=eastwest;fontSize=12;labelBackgroundColor=none;labelBorderColor=none;fontColor=none;" vertex="1" parent="1">
          <mxGeometry x="830" y="1540" width="40" height="30" as="geometry" />
        </mxCell>
        <mxCell id="VjZZS00Gkfw38Kd_Mepe-258" value="1..n" style="text;strokeColor=none;fillColor=none;spacingLeft=4;spacingRight=4;overflow=hidden;rotatable=0;points=[[0,0.5],[1,0.5]];portConstraint=eastwest;fontSize=12;labelBackgroundColor=none;labelBorderColor=none;fontColor=none;" vertex="1" parent="1">
          <mxGeometry x="740" y="1540" width="40" height="30" as="geometry" />
        </mxCell>
        <mxCell id="VjZZS00Gkfw38Kd_Mepe-259" value="1" style="text;strokeColor=none;fillColor=none;spacingLeft=4;spacingRight=4;overflow=hidden;rotatable=0;points=[[0,0.5],[1,0.5]];portConstraint=eastwest;fontSize=12;labelBackgroundColor=none;labelBorderColor=none;fontColor=none;" vertex="1" parent="1">
          <mxGeometry x="940" y="1540" width="20" height="30" as="geometry" />
        </mxCell>
        <mxCell id="VjZZS00Gkfw38Kd_Mepe-260" value="1" style="text;strokeColor=none;fillColor=none;spacingLeft=4;spacingRight=4;overflow=hidden;rotatable=0;points=[[0,0.5],[1,0.5]];portConstraint=eastwest;fontSize=12;labelBackgroundColor=none;labelBorderColor=none;fontColor=none;" vertex="1" parent="1">
          <mxGeometry x="650" y="1770" width="20" height="30" as="geometry" />
        </mxCell>
        <mxCell id="VjZZS00Gkfw38Kd_Mepe-261" value="0..n" style="text;strokeColor=none;fillColor=none;spacingLeft=4;spacingRight=4;overflow=hidden;rotatable=0;points=[[0,0.5],[1,0.5]];portConstraint=eastwest;fontSize=12;labelBackgroundColor=none;labelBorderColor=none;fontColor=none;" vertex="1" parent="1">
          <mxGeometry x="650" y="1660" width="40" height="30" as="geometry" />
        </mxCell>
        <mxCell id="VjZZS00Gkfw38Kd_Mepe-262" value="belongs" style="text;strokeColor=none;fillColor=none;spacingLeft=4;spacingRight=4;overflow=hidden;rotatable=0;points=[[0,0.5],[1,0.5]];portConstraint=eastwest;fontSize=12;labelBackgroundColor=none;labelBorderColor=none;fontColor=none;" vertex="1" parent="1">
          <mxGeometry x="650" y="1720" width="60" height="30" as="geometry" />
        </mxCell>
      </root>
    </mxGraphModel>
  </diagram>
</mxfile>
